<svg id="Apple_Watch" data-name="Apple Watch" xmlns="http://www.w3.org/2000/svg" width="18.552" height="30.892" viewBox="0 0 18.552 30.892">
  <path id="icon" d="M74.052,340.041v-3.215H73.7a4.792,4.792,0,0,0-2.377-3.808c-.122-.086-.685-.566-.685-2.569v-1.162A1.937,1.937,0,0,0,68.7,327.35H60.513a1.937,1.937,0,0,0-1.937,1.937v1.162c0,2-.563,2.483-.685,2.569a4.792,4.792,0,0,0-2.391,4.149v11.257a4.806,4.806,0,0,0,2.473,4.2c.175.159.6.738.6,2.52V356.3a1.937,1.937,0,0,0,1.937,1.937H68.7a1.937,1.937,0,0,0,1.937-1.937v-1.162c0-1.8.454-2.381.636-2.54a4.8,4.8,0,0,0,2.44-4.179v-1.142h.341v-4.2h-.341v-3.036Zm-14.482-9.592v-1.162a.945.945,0,0,1,.944-.944H68.7a.945.945,0,0,1,.944.944v1.162a7.161,7.161,0,0,0,.245,2.016,4.747,4.747,0,0,0-.977-.1H60.3a4.747,4.747,0,0,0-.977.1A7.161,7.161,0,0,0,59.569,330.449Zm10.072,24.694V356.3a.945.945,0,0,1-.944.944H60.513a.945.945,0,0,1-.944-.944v-1.162a7.316,7.316,0,0,0-.238-2.013,4.942,4.942,0,0,0,.97.1H68.91a4.951,4.951,0,0,0,.973-.1A7.171,7.171,0,0,0,69.641,355.143Zm3.076-6.718a3.8,3.8,0,0,1-1.768,3.212c-.086.056-.172.106-.262.156a3.791,3.791,0,0,1-1.778.44H60.3a3.777,3.777,0,0,1-1.775-.44q-.119-.065-.238-.139h0a3.81,3.81,0,0,1-1.791-3.228V337.167a3.812,3.812,0,0,1,3.808-3.808H68.91a3.789,3.789,0,0,1,1.94.533.287.287,0,0,1,.033.02,3.808,3.808,0,0,1,1.834,3.255ZM60.467,334.187a3.149,3.149,0,0,0-3.145,3.145v10.926a3.149,3.149,0,0,0,3.145,3.146h8.278a3.149,3.149,0,0,0,3.145-3.146V337.333a3.149,3.149,0,0,0-3.145-3.145Z" transform="translate(-55.5 -327.35)" fill="#707070"/>
</svg>
