<svg xmlns="http://www.w3.org/2000/svg" width="295.032" height="361.9" viewBox="0 0 295.032 361.9">
  <g id="Apple_Logo_Light_Gray" data-name="Apple Logo Light Gray" transform="translate(16.623 60.391)">
    <g id="Group_4" data-name="Group 4" transform="translate(-16.623 -60.391)" opacity="0.18">
      <g id="Group_1" data-name="Group 1">
        <path id="Path_1" data-name="Path 1" d="M313.235,149.3c23.778-31.34,56.837-31.493,56.837-31.493s4.916,29.465-18.705,57.85C326.143,205.964,297.474,201,297.474,201S292.091,177.167,313.235,149.3Z" transform="translate(-150.451 -117.805)" fill="#ccc" fill-rule="evenodd"/>
        <path id="Path_2" data-name="Path 2" d="M200.641,281c12.234,0,34.936-16.815,64.488-16.815,50.869,0,70.88,36.2,70.88,36.2s-39.139,20.011-39.139,68.566c0,54.775,48.756,73.652,48.756,73.652s-34.083,95.931-80.118,95.931c-21.145,0-37.583-14.249-59.862-14.249-22.7,0-45.233,14.781-59.906,14.781-42.038,0-95.146-91-95.146-164.147,0-71.968,44.953-109.721,87.117-109.721C165.12,265.191,186.392,281,200.641,281Z" transform="translate(-50.594 -177.159)" fill="#ccc" fill-rule="evenodd"/>
      </g>
    </g>
  </g>
</svg>
