<svg id="Iphone_icon" data-name="Iphone icon" xmlns="http://www.w3.org/2000/svg" width="15.363" height="29.137" viewBox="0 0 15.363 29.137">
  <path id="icon" d="M312.163,47.111a.253.253,0,1,1-.254.253A.253.253,0,0,1,312.163,47.111Zm2.373,25.377a1.47,1.47,0,1,1,1.469-1.47A1.472,1.472,0,0,1,314.536,72.489Zm0-2.277a.807.807,0,1,0,.807.807A.808.808,0,0,0,314.536,70.212Zm5.905-1.16h-11.92V49.185h11.92Zm1.589-19.1h-.1v-2.4a2.678,2.678,0,0,0-2.675-2.672h-9.549a2.678,2.678,0,0,0-2.675,2.672v1.685H307a.2.2,0,0,0-.2.2V50.4a.2.2,0,0,0,.2.2h.033v2.036H307a.2.2,0,0,0-.2.2v1.848a.2.2,0,0,0,.2.2h.033v.632H307a.2.2,0,0,0-.2.2v1.848a.2.2,0,0,0,.2.2h.033V71.346a2.678,2.678,0,0,0,2.675,2.672h9.549a2.678,2.678,0,0,0,2.675-2.672V52.2h.1a.133.133,0,0,0,.133-.132v-1.98A.133.133,0,0,0,322.031,49.95Zm-1.093,21.4a1.684,1.684,0,0,1-1.682,1.679h-9.549a1.684,1.684,0,0,1-1.682-1.679V47.553a1.684,1.684,0,0,1,1.682-1.679h9.549a1.684,1.684,0,0,1,1.682,1.679ZM317.054,47.2h-4.133v.331h4.133Z" transform="translate(-306.8 -44.881)" fill="#707070" fill-rule="evenodd"/>
</svg>
