<svg id="Mac_Icon" data-name="Mac Icon" xmlns="http://www.w3.org/2000/svg" width="39.07" height="22.833" viewBox="0 0 39.07 22.833">
  <path id="icon" d="M175.525,210.945a.222.222,0,1,0,.228.222A.225.225,0,0,0,175.525,210.945Zm-14.333.781v17.211h28.376V211.726Zm28.044,16.88H161.523V212.057h27.713Zm-13.711-17.661a.222.222,0,1,0,.228.222A.225.225,0,0,0,175.525,210.945Zm-14.333.781v17.211h28.376V211.726Zm28.044,16.88H161.523V212.057h27.713Zm-13.711-17.661a.222.222,0,1,0,.228.222A.225.225,0,0,0,175.525,210.945Zm-14.333.781v17.211h28.376V211.726Zm30.273,18.244V211.346a1.666,1.666,0,0,0-1.682-1.646H161.119a1.669,1.669,0,0,0-1.685,1.646V229.97H156v1.523l.262.139c.066.036,1.725.9,6.44.9h25.667c4.715,0,6.374-.864,6.44-.9l.262-.139V229.97Zm-31.038-18.625a.674.674,0,0,1,.692-.652h28.664a.671.671,0,0,1,.689.652V229.97H160.427Zm27.942,20.194H162.7a19.693,19.693,0,0,1-5.4-.576h14.886c.026.073.152.265.738.265h4.9c.586,0,.712-.192.738-.265h15.2A19.714,19.714,0,0,1,188.369,231.54Z" transform="translate(-156 -209.7)" fill="#fff"/>
</svg>
